<svg width="120" height="40" viewBox="0 0 120 40" xmlns="http://www.w3.org/2000/svg">
  <defs>
    <linearGradient id="birdGradient" x1="0%" y1="0%" x2="100%" y2="100%">
      <stop offset="0%" style="stop-color:#4F46E5;stop-opacity:1" />
      <stop offset="100%" style="stop-color:#06B6D4;stop-opacity:1" />
    </linearGradient>
  </defs>
  
  <!-- Bird silhouette -->
  <path d="M8 20c0-3 2-5 5-5s5 2 5 5c0 1-0.5 2-1 2.5l3 1.5c1-0.5 2-0.5 3 0l2-1c0.5-1 1-2 1-3 0-4 3-7 7-7s7 3 7 7c0 2-1 4-2.5 5.5L35 22c0.5 0.5 0.5 1.5 0 2l-2 2c-0.5 0.5-1.5 0.5-2 0l-2-2c-1 0.5-2 0.5-3 0l-3-1.5c-0.5 0.5-1 1-2 1s-1.5-0.5-2-1l-3 1.5c-1 0.5-2 0.5-3 0l-2 2c-0.5 0.5-1.5 0.5-2 0l-2-2c-0.5-0.5-0.5-1.5 0-2l2.5-2c-1.5-1.5-2.5-3.5-2.5-5.5z" fill="url(#birdGradient)"/>
  
  <!-- Text -->
  <text x="45" y="16" font-family="Arial, sans-serif" font-size="14" font-weight="bold" fill="#1F2937">Flyora</text>
  <text x="45" y="28" font-family="Arial, sans-serif" font-size="8" fill="#6B7280">Bird E-commerce</text>
</svg>